<svg width="30" height="30" viewBox="0 0 30 30" fill="none" xmlns="http://www.w3.org/2000/svg">
<path d="M25.1401 13.8344H22.7801C22.6461 13.8344 22.5179 13.8943 22.4275 13.9991L16.0496 21.5538V4.69267C16.0496 4.56092 15.9447 4.45312 15.8165 4.45312H14.0684C13.9402 4.45312 13.8353 4.56092 13.8353 4.69267V21.5538L7.45736 13.9991C7.36995 13.8943 7.24175 13.8344 7.10481 13.8344H4.74478C4.54665 13.8344 4.43885 14.0769 4.56996 14.2296L14.2403 25.683C14.3277 25.7866 14.4358 25.8697 14.5572 25.9267C14.6786 25.9836 14.8105 26.0131 14.9439 26.0131C15.0774 26.0131 15.2093 25.9836 15.3307 25.9267C15.4521 25.8697 15.5601 25.7866 15.6475 25.683L25.3149 14.2296C25.4461 14.0739 25.3382 13.8344 25.1401 13.8344Z" fill="black"/>
</svg>
