<svg width="39" height="38" viewBox="0 0 39 38" fill="none" xmlns="http://www.w3.org/2000/svg">
<path d="M25.2 18.9998C25.2 20.5115 24.5995 21.9613 23.5305 23.0303C22.4616 24.0992 21.0117 24.6998 19.5 24.6998C17.9883 24.6998 16.5385 24.0992 15.4695 23.0303C14.4005 21.9613 13.8 20.5115 13.8 18.9998C13.8 18.6749 13.8342 18.3576 13.8931 18.0498H11.9V25.6441C11.9 26.1723 12.3275 26.5998 12.8557 26.5998H26.1462C26.3993 26.5993 26.6419 26.4984 26.8208 26.3192C26.9996 26.14 27.1 25.8972 27.1 25.6441V18.0498H25.1069C25.1658 18.3576 25.2 18.6749 25.2 18.9998ZM19.5 22.7998C19.9992 22.7996 20.4934 22.7012 20.9545 22.5101C21.4156 22.3189 21.8345 22.0389 22.1874 21.6858C22.5403 21.3328 22.8201 20.9137 23.011 20.4525C23.2019 19.9913 23.3001 19.497 23.3 18.9979C23.2999 18.4987 23.2014 18.0045 23.0103 17.5434C22.8192 17.0823 22.5391 16.6633 22.1861 16.3105C21.833 15.9576 21.4139 15.6777 20.9527 15.4868C20.4915 15.2959 19.9973 15.1977 19.4981 15.1979C18.49 15.1981 17.5233 15.5988 16.8107 16.3118C16.0981 17.0248 15.6979 17.9917 15.6981 18.9998C15.6984 20.0078 16.0991 20.9745 16.8121 21.6872C17.525 22.3998 18.4919 22.8 19.5 22.7998ZM24.06 15.0098H26.3381C26.4895 15.0098 26.6346 14.9498 26.7418 14.8429C26.849 14.7361 26.9095 14.5911 26.91 14.4398V12.1617C26.91 12.01 26.8498 11.8645 26.7425 11.7573C26.6353 11.65 26.4898 11.5898 26.3381 11.5898H24.06C23.9083 11.5898 23.7629 11.65 23.6556 11.7573C23.5484 11.8645 23.4881 12.01 23.4881 12.1617V14.4398C23.49 14.7533 23.7465 15.0098 24.06 15.0098ZM19.5 0.759766C14.6625 0.759766 10.023 2.68147 6.60238 6.10214C3.18172 9.5228 1.26001 14.1622 1.26001 18.9998C1.26001 23.8373 3.18172 28.4767 6.60238 31.8974C10.023 35.3181 14.6625 37.2398 19.5 37.2398C21.8953 37.2398 24.2672 36.768 26.4802 35.8513C28.6931 34.9347 30.7039 33.5911 32.3976 31.8974C34.0914 30.2037 35.4349 28.1929 36.3516 25.9799C37.2682 23.7669 37.74 21.3951 37.74 18.9998C37.74 16.6045 37.2682 14.2326 36.3516 12.0196C35.4349 9.80664 34.0914 7.79588 32.3976 6.10214C30.7039 4.4084 28.6931 3.06485 26.4802 2.1482C24.2672 1.23156 21.8953 0.759766 19.5 0.759766ZM29 26.3889C29 27.5498 28.05 28.4998 26.8891 28.4998H12.1109C10.95 28.4998 10 27.5498 10 26.3889V11.6107C10 10.4498 10.95 9.49977 12.1109 9.49977H26.8891C28.05 9.49977 29 10.4498 29 11.6107V26.3889Z" fill="black"/>
</svg>
