<svg id="Layer_1" data-name="Layer 1" xmlns="http://www.w3.org/2000/svg" viewBox="0 0 172.49 158.99"><defs><style>.cls-1{fill:#e07b52;}.cls-2{fill:#a65547;}</style></defs><path class="cls-1" d="M93.73,44.38a98.66,98.66,0,0,1,14.88.26,49.73,49.73,0,0,0,10.88-19.71A49.8,49.8,0,0,0,121.1,5.37a65.46,65.46,0,0,0-10.48-2.09A40.12,40.12,0,0,1,93.73,44.38Z"/><path class="cls-1" d="M28.62,109.33a45.08,45.08,0,0,0,61.22,17.5,20,20,0,0,1,27.21,7.77l8.46-5.36c-8-14.47-26.06-19.2-40.53-11.16A35,35,0,1,1,51,56.86L86,37.42a30.05,30.05,0,0,0,14.28-34.5A65.41,65.41,0,0,0,90.13,4.17a20.06,20.06,0,0,1-9,24.51l-35,19.43A45.07,45.07,0,0,0,28.62,109.33Z"/><path class="cls-1" d="M129.11,27.68a60,60,0,0,1-5.44,13l-3.12,5.55,6.5,1.83a99.53,99.53,0,0,1,41.12,23.34q.17-2.94.06-5.89a61.91,61.91,0,0,0-.75-7.9,109.54,109.54,0,0,0-32.32-17.49,69.48,69.48,0,0,0,3.57-9.73,70.57,70.57,0,0,0,2.61-15.26,65.44,65.44,0,0,0-9.92-5.89A60,60,0,0,1,129.11,27.68Z"/><path class="cls-1" d="M11.12,119.05a65.12,65.12,0,0,0,88.43,25.27l8.75-4.86a10,10,0,0,0-13.61-3.89A55,55,0,1,1,41.26,39.36l35-19.43A10,10,0,0,0,80.45,7,64.75,64.75,0,0,0,71.67,11L36.4,30.62A65.11,65.11,0,0,0,11.12,119.05Z"/><path class="cls-1" d="M148.35,33.18,148,34.42a119.88,119.88,0,0,1,15.09,7.95,65.48,65.48,0,0,0-3-6.07,64.45,64.45,0,0,0-9.57-13.09A81.31,81.31,0,0,1,148.35,33.18Z"/><path class="cls-1" d="M159.62,94.84l4.92-10.13c-5.34-8-10.88-12.78-19.14-18.17A71.65,71.65,0,0,0,91.14,56.39a5.15,5.15,0,1,0,2.12,10.08C119.2,61,146.21,73.66,159.62,94.84Z"/><path class="cls-1" d="M149.1,94A71.68,71.68,0,0,0,97.34,74.78a5.15,5.15,0,0,0,.39,10.3c20-.76,38.89,8.79,51.07,23.48a101.12,101.12,0,0,0,6.82-8A91.45,91.45,0,0,0,149.1,94Z"/><path class="cls-1" d="M104.41,94.92a5.15,5.15,0,0,0-1.8,10.15,62,62,0,0,1,32,16.51c2.67-2.16,5.35-4.46,8-6.88A71.66,71.66,0,0,0,104.41,94.92Z"/><path class="cls-2" d="M91.88,103.34a15.37,15.37,0,0,1-1.76,2.16,24.93,24.93,0,0,1-2.9,2.59,36.58,36.58,0,0,1-4,2.66,34.11,34.11,0,0,1-4.93,2.34,27.55,27.55,0,0,1-11,2,24.37,24.37,0,0,1-17.52-8.25,27.63,27.63,0,0,1-5.24-8.68,27,27,0,0,1-1.86-10.83,26,26,0,0,1,2.39-10,26.45,26.45,0,0,1,6-8.27,27.62,27.62,0,0,1,9.08-5.61,32.63,32.63,0,0,1,4.07-1.24,31.88,31.88,0,0,1,4.08-.72A21.07,21.07,0,0,1,72,61.34a9.33,9.33,0,0,1,2.62.49c-.16.67-.27,1.22-.34,1.66s-.14.88-.22,1.34-.16,1-.24,1.58v0a2.43,2.43,0,0,1-2.4,2.1H71a21.25,21.25,0,0,0-2.71.27c-.92.15-1.84.35-2.74.59a22.05,22.05,0,0,0-2.44.78,19.38,19.38,0,0,0-11,10.25,19.1,19.1,0,0,0-1.65,7.09A18.16,18.16,0,0,0,53,97.41a14.43,14.43,0,0,0,1.37,2A20,20,0,0,0,61.25,105a18.59,18.59,0,0,0,7.08,1.8,18.31,18.31,0,0,0,7.72-1.27,21.08,21.08,0,0,0,3.89-1.94,31.06,31.06,0,0,0,3.17-2.28,20.29,20.29,0,0,0,2.22-2.07h0a1.48,1.48,0,0,1,2.14-.08Z"/><path class="cls-2" d="M68.34,117.06l-1.1,0a26.35,26.35,0,0,1-18.92-8.9,30,30,0,0,1-5.62-9.31,29.1,29.1,0,0,1-2-11.62,28.43,28.43,0,0,1,2.57-10.76,29,29,0,0,1,6.51-8.89,29.83,29.83,0,0,1,9.72-6,35,35,0,0,1,4.32-1.33,35.86,35.86,0,0,1,4.33-.76,23.05,23.05,0,0,1,3.93-.11,10.74,10.74,0,0,1,3.2.62,2,2,0,0,1,1.23,2.32q-.21.91-.3,1.5c-.07.44-.14.9-.22,1.38s-.16,1-.24,1.52c0,0,0,0,0,.07a4.44,4.44,0,0,1-4.37,3.77h-.29a19.47,19.47,0,0,0-2.48.25,24.77,24.77,0,0,0-2.53.54,23.19,23.19,0,0,0-2.25.72A17.26,17.26,0,0,0,52.51,87.6a16.2,16.2,0,0,0,2.18,8.83,13.21,13.21,0,0,0,1.18,1.73,18.16,18.16,0,0,0,6.25,5,16.65,16.65,0,0,0,6.33,1.6,16.38,16.38,0,0,0,6.89-1.14,19.92,19.92,0,0,0,3.52-1.75,30.46,30.46,0,0,0,3-2.14,19.19,19.19,0,0,0,2-1.86,3.48,3.48,0,0,1,5-.2l4.39,4.24a2,2,0,0,1,.3,2.51,17.58,17.58,0,0,1-2,2.46,28.88,28.88,0,0,1-3.12,2.8,38.89,38.89,0,0,1-4.18,2.8A34.68,34.68,0,0,1,79.05,115,30.17,30.17,0,0,1,68.34,117.06Zm2.51-53.75a20.3,20.3,0,0,0-2.26.13,31.49,31.49,0,0,0-3.83.67,32.06,32.06,0,0,0-3.82,1.17,25.75,25.75,0,0,0-8.42,5.2,24.63,24.63,0,0,0-5.61,7.65,24.25,24.25,0,0,0-2.2,9.24,25,25,0,0,0,1.73,10,25.87,25.87,0,0,0,4.86,8.07A22.42,22.42,0,0,0,67.42,113a25.58,25.58,0,0,0,10.21-1.82,30.42,30.42,0,0,0,4.62-2.2,33.7,33.7,0,0,0,3.74-2.5,23.73,23.73,0,0,0,2.68-2.4l.54-.59-2.74-2.63a24.07,24.07,0,0,1-2.08,1.9A33.65,33.65,0,0,1,81,105.23a23.32,23.32,0,0,1-4.24,2.12,20.5,20.5,0,0,1-16.4-.6,22,22,0,0,1-7.61-6.08,17.18,17.18,0,0,1-1.55-2.27,20.28,20.28,0,0,1-2.7-11A21.37,21.37,0,0,1,62.4,68.31c.77-.29,1.66-.58,2.63-.84a28.21,28.21,0,0,1,3-.63,25.43,25.43,0,0,1,3-.3h.44a.43.43,0,0,0,.43-.37c.09-.64.17-1.19.25-1.67s.13-.76.19-1.12l-.41,0C71.51,63.32,71.19,63.31,70.85,63.31Z"/></svg>