<svg id="Layer_1" data-name="Layer 1" xmlns="http://www.w3.org/2000/svg" viewBox="0 0 173.99 157.49"><defs><style>.cls-1{fill:#e8a473;}.cls-2{fill:#e07b52;}</style></defs><path class="cls-1" d="M94.77,45a100,100,0,0,1,14.88.26,49.69,49.69,0,0,0,10.88-19.7A49.86,49.86,0,0,0,122.14,6a65.66,65.66,0,0,0-10.48-2.08A40.13,40.13,0,0,1,94.77,45Z"/><path class="cls-1" d="M29.65,109.91a45.06,45.06,0,0,0,61.22,17.5,20,20,0,0,1,27.21,7.78l8.46-5.36c-8-14.47-26.06-19.2-40.52-11.17A35,35,0,1,1,52,57.44L87,38A30.08,30.08,0,0,0,101.28,3.5,65.71,65.71,0,0,0,91.16,4.76a20,20,0,0,1-9,24.5l-35,19.43A45.08,45.08,0,0,0,29.65,109.91Z"/><path class="cls-1" d="M130.15,28.27a60.41,60.41,0,0,1-5.44,13l-3.13,5.54,6.51,1.84A99.47,99.47,0,0,1,169.2,72c.11-2,.14-3.92.07-5.89a66,66,0,0,0-.75-7.9A109.66,109.66,0,0,0,136.2,40.74a70.84,70.84,0,0,0,6.18-25,65.14,65.14,0,0,0-9.93-5.88A60.28,60.28,0,0,1,130.15,28.27Z"/><path class="cls-1" d="M12.16,119.63a65.1,65.1,0,0,0,88.43,25.27l8.75-4.85a10,10,0,0,0-13.61-3.89A55,55,0,0,1,42.29,40l35-19.44a10,10,0,0,0,4.21-13,64.82,64.82,0,0,0-8.78,4.06L37.43,31.2A65.11,65.11,0,0,0,12.16,119.63Z"/><path class="cls-1" d="M149.39,33.77c-.12.41-.24.82-.37,1.23a119.38,119.38,0,0,1,15.1,8,64.43,64.43,0,0,0-3-6.08,65.11,65.11,0,0,0-9.57-13.09A81.47,81.47,0,0,1,149.39,33.77Z"/><path class="cls-1" d="M160.66,95.43l4.91-10.14c-5.33-8-10.88-12.78-19.14-18.17A71.66,71.66,0,0,0,92.18,57,5.15,5.15,0,1,0,94.3,67.05C120.24,61.59,147.25,74.24,160.66,95.43Z"/><path class="cls-1" d="M150.14,94.54A71.64,71.64,0,0,0,98.38,75.37a5.15,5.15,0,1,0,.38,10.29c20-.75,38.89,8.79,51.08,23.48a103.13,103.13,0,0,0,6.82-8A91.49,91.49,0,0,0,150.14,94.54Z"/><path class="cls-1" d="M105.44,95.51a5.15,5.15,0,1,0-1.79,10.14,62.15,62.15,0,0,1,32,16.51c2.67-2.16,5.35-4.45,8-6.88A71.54,71.54,0,0,0,105.44,95.51Z"/><path class="cls-2" d="M92.92,103.92a15,15,0,0,1-1.76,2.16,26.81,26.81,0,0,1-2.9,2.6,36.76,36.76,0,0,1-4,2.65,32,32,0,0,1-4.92,2.34,27.2,27.2,0,0,1-11,2,24.36,24.36,0,0,1-17.52-8.24,27.68,27.68,0,0,1-5.24-8.69,27,27,0,0,1-1.86-10.82A26,26,0,0,1,52.19,69.6,27.65,27.65,0,0,1,61.26,64a32.65,32.65,0,0,1,4.07-1.25A34.22,34.22,0,0,1,69.42,62a20,20,0,0,1,3.58-.1,8.85,8.85,0,0,1,2.61.49q-.23,1-.33,1.65c-.07.43-.14.88-.22,1.34s-.16,1-.24,1.59h0a2.43,2.43,0,0,1-2.4,2.11H72a25.44,25.44,0,0,0-2.7.27c-.92.15-1.84.35-2.75.59s-1.72.51-2.44.78A19.4,19.4,0,0,0,57.47,75,19.68,19.68,0,0,0,53.19,81a19.4,19.4,0,0,0-1.65,7.08A18.18,18.18,0,0,0,54,98a16,16,0,0,0,1.36,2,20.12,20.12,0,0,0,6.93,5.53,18.57,18.57,0,0,0,14.81.54A21.3,21.3,0,0,0,81,104.13a32.88,32.88,0,0,0,3.18-2.29,20.31,20.31,0,0,0,2.22-2.06v0a1.5,1.5,0,0,1,2.15-.08Z"/><path class="cls-2" d="M69.38,117.64l-1.1,0a26.41,26.41,0,0,1-18.92-8.91,29.63,29.63,0,0,1-5.62-9.31,29.1,29.1,0,0,1-2-11.62,28,28,0,0,1,9.08-19.64,29.65,29.65,0,0,1,9.72-6,36.21,36.21,0,0,1,4.32-1.33A37.56,37.56,0,0,1,69.2,60a23.05,23.05,0,0,1,3.93-.11,11.13,11.13,0,0,1,3.2.62,2,2,0,0,1,1.23,2.32q-.21.91-.3,1.5c-.07.45-.15.91-.23,1.38s-.15,1-.23,1.52a.2.2,0,0,0,0,.07,4.46,4.46,0,0,1-4.37,3.78h-.3a21.53,21.53,0,0,0-2.47.25c-.84.14-1.7.32-2.54.54a22.93,22.93,0,0,0-2.24.72,17.43,17.43,0,0,0-6,3.76A17.7,17.7,0,0,0,55,81.83a17.5,17.5,0,0,0-1.48,6.35A16.3,16.3,0,0,0,55.73,97a13.21,13.21,0,0,0,1.18,1.73,18.16,18.16,0,0,0,6.25,5,16.47,16.47,0,0,0,13.22.47,19.29,19.29,0,0,0,3.52-1.76,31.72,31.72,0,0,0,3-2.14,19.12,19.12,0,0,0,2-1.86,3.51,3.51,0,0,1,2.49-1.17,3.6,3.6,0,0,1,2.55,1l4.39,4.24a2,2,0,0,1,.3,2.51,17.58,17.58,0,0,1-2,2.46,28,28,0,0,1-3.13,2.8,37.92,37.92,0,0,1-4.18,2.81,35.53,35.53,0,0,1-5.22,2.48A30,30,0,0,1,69.38,117.64Zm2.5-53.75a20.13,20.13,0,0,0-2.25.13,31.58,31.58,0,0,0-3.83.68A29.82,29.82,0,0,0,62,65.87a25.94,25.94,0,0,0-8.43,5.19A24.71,24.71,0,0,0,48,78.71,24.29,24.29,0,0,0,45.75,88a25.18,25.18,0,0,0,1.72,10A25.85,25.85,0,0,0,52.34,106a22.32,22.32,0,0,0,16.12,7.58,25.5,25.5,0,0,0,10.2-1.82,31.52,31.52,0,0,0,4.63-2.19A36.2,36.2,0,0,0,87,107.1a25.73,25.73,0,0,0,2.68-2.39c.19-.21.37-.4.53-.59l-2.73-2.64a24.3,24.3,0,0,1-2.09,1.91,33.89,33.89,0,0,1-3.37,2.42,23.45,23.45,0,0,1-4.25,2.13,20.53,20.53,0,0,1-16.39-.61,21.93,21.93,0,0,1-7.61-6.08A16.55,16.55,0,0,1,52.25,99a20.11,20.11,0,0,1-2.7-11,21.14,21.14,0,0,1,1.82-7.81A21.49,21.49,0,0,1,63.44,68.89c.77-.29,1.66-.57,2.63-.84a29.76,29.76,0,0,1,3-.63,25.43,25.43,0,0,1,3-.3h.44a.44.44,0,0,0,.42-.38c.09-.64.18-1.19.26-1.67s.13-.75.18-1.11l-.41,0C72.55,63.9,72.22,63.89,71.88,63.89Z"/></svg>