<svg id="Layer_1" data-name="Layer 1" xmlns="http://www.w3.org/2000/svg" viewBox="0 0 108.54 98.2"><defs><style>.cls-1{fill:#1d1d1b;}</style></defs><path class="cls-1" d="M306.07,396.44a65.08,65.08,0,0,1,9.77.18,32.94,32.94,0,0,0,8.2-25.79,43.41,43.41,0,0,0-6.88-1.37A26.33,26.33,0,0,1,306.07,396.44Z" transform="translate(-246.47 -369.22)"/><path class="cls-1" d="M263.32,439.09a29.6,29.6,0,0,0,40.2,11.49,13.15,13.15,0,0,1,17.86,5.1l5.56-3.52a19.41,19.41,0,0,0-26.61-7.33A23,23,0,1,1,278,404.64l23-12.76a19.76,19.76,0,0,0,9.38-22.66,41.56,41.56,0,0,0-6.64.83,13.16,13.16,0,0,1-5.93,16.08l-23,12.76A29.6,29.6,0,0,0,263.32,439.09Z" transform="translate(-246.47 -369.22)"/><path class="cls-1" d="M329.3,385.48a39.21,39.21,0,0,1-3.57,8.56l-2.05,3.64,4.27,1.21a65.3,65.3,0,0,1,27,15.32c.07-1.29.08-2.58,0-3.87a41.42,41.42,0,0,0-.5-5.19,72.2,72.2,0,0,0-21.21-11.48,46.54,46.54,0,0,0,4.05-16.4,42.46,42.46,0,0,0-6.51-3.87A39.56,39.56,0,0,1,329.3,385.48Z" transform="translate(-246.47 -369.22)"/><path class="cls-1" d="M251.83,445.47a42.75,42.75,0,0,0,58.07,16.59l5.74-3.19a6.58,6.58,0,0,0-8.93-2.55,36.13,36.13,0,1,1-35.09-63.17l23-12.76a6.56,6.56,0,0,0,2.76-8.51,43.23,43.23,0,0,0-5.76,2.66l-23.16,12.87A42.75,42.75,0,0,0,251.83,445.47Z" transform="translate(-246.47 -369.22)"/><path class="cls-1" d="M341.94,389.09l-.24.81a78,78,0,0,1,9.91,5.23,43.29,43.29,0,0,0-2-4,42.57,42.57,0,0,0-6.29-8.6A52.34,52.34,0,0,1,341.94,389.09Z" transform="translate(-246.47 -369.22)"/><path class="cls-1" d="M349.34,429.58l3.22-6.66c-3.5-5.22-7.14-8.39-12.57-11.93a47,47,0,0,0-35.62-6.66,3.38,3.38,0,0,0,1.39,6.62C322.8,407.36,340.53,415.67,349.34,429.58Z" transform="translate(-246.47 -369.22)"/><path class="cls-1" d="M342.43,429a47.05,47.05,0,0,0-34-12.58,3.38,3.38,0,0,0,.26,6.76c13.14-.5,25.53,5.77,33.53,15.41a67.49,67.49,0,0,0,4.48-5.25C345.44,431.89,344,430.48,342.43,429Z" transform="translate(-246.47 -369.22)"/><path class="cls-1" d="M313.08,429.63a3.38,3.38,0,1,0-1.18,6.66,40.76,40.76,0,0,1,21,10.84c1.75-1.42,3.51-2.93,5.22-4.52A46.92,46.92,0,0,0,313.08,429.63Z" transform="translate(-246.47 -369.22)"/><path class="cls-1" d="M304.86,435.15a10.22,10.22,0,0,1-1.15,1.42,17.69,17.69,0,0,1-1.91,1.71,23.93,23.93,0,0,1-2.6,1.74,22,22,0,0,1-3.23,1.54,18.12,18.12,0,0,1-7.23,1.28,16.46,16.46,0,0,1-6.39-1.55,16.13,16.13,0,0,1-5.11-3.87,18.27,18.27,0,0,1-3.45-5.7,17.72,17.72,0,0,1-1.22-7.11,17.22,17.22,0,0,1,1.57-6.56,17.47,17.47,0,0,1,4-5.43,18.1,18.1,0,0,1,6-3.68,21.86,21.86,0,0,1,2.67-.82,23.26,23.26,0,0,1,2.68-.47,13.59,13.59,0,0,1,2.35-.07,6.44,6.44,0,0,1,1.72.32,11,11,0,0,0-.22,1.09c0,.28-.09.58-.15.88s-.1.65-.16,1h0a1.59,1.59,0,0,1-1.57,1.38h-.25a16,16,0,0,0-1.78.17q-.9.15-1.8.39c-.59.16-1.13.33-1.6.51a12.61,12.61,0,0,0-4.39,2.76,12.75,12.75,0,0,0-2.8,4,12.51,12.51,0,0,0-1.09,4.65,11.92,11.92,0,0,0,1.61,6.49,9.84,9.84,0,0,0,.89,1.32,13.19,13.19,0,0,0,4.55,3.63,12.1,12.1,0,0,0,9.73.35,14.44,14.44,0,0,0,2.55-1.27,20.8,20.8,0,0,0,2.08-1.5,14.51,14.51,0,0,0,1.46-1.36h0a1,1,0,0,1,1.41-.05Z" transform="translate(-246.47 -369.22)"/><path class="cls-1" d="M289.4,444.16h-.72a17.34,17.34,0,0,1-12.42-5.85,19.69,19.69,0,0,1-3.69-6.11,19.08,19.08,0,0,1-1.31-7.63,18.4,18.4,0,0,1,6-12.9,19.56,19.56,0,0,1,6.39-4,24.55,24.55,0,0,1,2.83-.87,23.83,23.83,0,0,1,2.84-.49,14.33,14.33,0,0,1,2.58-.08,7.3,7.3,0,0,1,2.11.41,1.3,1.3,0,0,1,.8,1.52c-.09.4-.16.73-.19,1s-.1.59-.15.9-.1.63-.16,1v.05a2.92,2.92,0,0,1-2.87,2.47h-.19a13.22,13.22,0,0,0-1.63.16c-.55.09-1.11.21-1.67.36s-1.05.31-1.47.47a11.28,11.28,0,0,0-3.94,2.47,11.34,11.34,0,0,0-3.5,7.74,10.72,10.72,0,0,0,1.44,5.8,8.43,8.43,0,0,0,.78,1.13,11.82,11.82,0,0,0,4.1,3.28,10.9,10.9,0,0,0,8.68.31,13.48,13.48,0,0,0,2.31-1.16,20,20,0,0,0,2-1.4,12.63,12.63,0,0,0,1.31-1.23,2.29,2.29,0,0,1,3.31-.12l2.88,2.78a1.32,1.32,0,0,1,.2,1.65,11.05,11.05,0,0,1-1.31,1.61,18.3,18.3,0,0,1-2.05,1.84,24.6,24.6,0,0,1-2.74,1.84,23.14,23.14,0,0,1-3.43,1.63A19.73,19.73,0,0,1,289.4,444.16Zm1.65-35.29a13,13,0,0,0-1.48.09,18.81,18.81,0,0,0-2.52.44,21.58,21.58,0,0,0-2.51.77,17,17,0,0,0-5.53,3.41,15.7,15.7,0,0,0-5.12,11.09,16.38,16.38,0,0,0,1.13,6.58,16.91,16.91,0,0,0,3.2,5.3,14.66,14.66,0,0,0,10.58,5,16.55,16.55,0,0,0,6.7-1.19,21.39,21.39,0,0,0,3-1.44,23.14,23.14,0,0,0,2.45-1.65,15,15,0,0,0,1.76-1.57c.13-.13.24-.26.35-.39l-1.79-1.73a14.61,14.61,0,0,1-1.37,1.25,22.45,22.45,0,0,1-2.22,1.6,15.79,15.79,0,0,1-2.79,1.39,13.4,13.4,0,0,1-10.76-.4,14.4,14.4,0,0,1-5-4,10.55,10.55,0,0,1-1-1.49,13.19,13.19,0,0,1-1.78-7.2,14.1,14.1,0,0,1,1.2-5.13,14.31,14.31,0,0,1,3.09-4.39,14.1,14.1,0,0,1,4.83-3c.51-.2,1.09-.38,1.73-.56a18.59,18.59,0,0,1,1.94-.41,16.2,16.2,0,0,1,1.93-.2h.29a.29.29,0,0,0,.28-.25c.06-.42.11-.78.17-1.09l.12-.74-.27,0Z" transform="translate(-246.47 -369.22)"/></svg>